<svg xmlns="http://www.w3.org/2000/svg" width="173" height="24" fill="none" viewBox="0 0 173 24"><g clip-path="url(#clip0_1_7)"><path fill="#0D141C" fill-rule="evenodd" d="M14.6667 5.33333H10.2222V9.7778H5.7778V14.2222H1.33333V18.6667H14.6667V5.33333V5.33333Z" clip-rule="evenodd"/></g><path fill="#0D141C" d="M41.396 18.5V5.9H44.456V18.5H41.396ZM33.584 18.5V5.9H36.644V18.5H33.584ZM34.772 13.586L34.79 10.85H43.016V13.586H34.772ZM51.8593 18.68C50.8033 18.68 49.8853 18.47 49.1053 18.05C48.3253 17.618 47.7193 17.036 47.2873 16.304C46.8553 15.56 46.6393 14.714 46.6393 13.766C46.6393 13.034 46.7593 12.362 46.9993 11.75C47.2393 11.138 47.5753 10.61 48.0073 10.166C48.4393 9.71 48.9493 9.362 49.5373 9.122C50.1373 8.87 50.7913 8.744 51.4993 8.744C52.1713 8.744 52.7833 8.864 53.3353 9.104C53.8993 9.344 54.3853 9.68 54.7933 10.112C55.2013 10.544 55.5133 11.054 55.7293 11.642C55.9453 12.23 56.0413 12.872 56.0173 13.568L55.9993 14.342H48.3853L47.9713 12.722H53.6593L53.3533 13.064V12.704C53.3293 12.404 53.2333 12.14 53.0653 11.912C52.9093 11.672 52.6993 11.486 52.4353 11.354C52.1713 11.222 51.8713 11.156 51.5353 11.156C51.0673 11.156 50.6653 11.252 50.3293 11.444C50.0053 11.624 49.7593 11.894 49.5913 12.254C49.4233 12.602 49.3393 13.034 49.3393 13.55C49.3393 14.078 49.4473 14.54 49.6633 14.936C49.8913 15.32 50.2153 15.62 50.6353 15.836C51.0673 16.052 51.5773 16.16 52.1653 16.16C52.5733 16.16 52.9333 16.1 53.2453 15.98C53.5693 15.86 53.9173 15.656 54.2893 15.368L55.6393 17.276C55.2673 17.6 54.8713 17.864 54.4513 18.068C54.0313 18.272 53.5993 18.422 53.1553 18.518C52.7233 18.626 52.2913 18.68 51.8593 18.68ZM61.3802 18.662C60.5762 18.662 59.8562 18.452 59.2202 18.032C58.5962 17.6 58.0982 17.012 57.7262 16.268C57.3542 15.512 57.1682 14.66 57.1682 13.712C57.1682 12.74 57.3542 11.882 57.7262 11.138C58.0982 10.394 58.6082 9.812 59.2562 9.392C59.9042 8.96 60.6422 8.744 61.4702 8.744C61.9262 8.744 62.3402 8.81 62.7122 8.942C63.0962 9.074 63.4322 9.26 63.7202 9.5C64.0082 9.728 64.2542 9.998 64.4582 10.31C64.6622 10.61 64.8122 10.934 64.9082 11.282L64.3142 11.21V8.942H67.1762V18.5H64.2602V16.196L64.9082 16.178C64.8122 16.514 64.6562 16.832 64.4402 17.132C64.2242 17.432 63.9602 17.696 63.6482 17.924C63.3362 18.152 62.9882 18.332 62.6042 18.464C62.2202 18.596 61.8122 18.662 61.3802 18.662ZM62.1722 16.232C62.6162 16.232 63.0002 16.13 63.3242 15.926C63.6482 15.722 63.9002 15.434 64.0802 15.062C64.2602 14.678 64.3502 14.228 64.3502 13.712C64.3502 13.196 64.2602 12.752 64.0802 12.38C63.9002 11.996 63.6482 11.702 63.3242 11.498C63.0002 11.282 62.6162 11.174 62.1722 11.174C61.7402 11.174 61.3622 11.282 61.0382 11.498C60.7262 11.702 60.4802 11.996 60.3002 12.38C60.1202 12.752 60.0302 13.196 60.0302 13.712C60.0302 14.228 60.1202 14.678 60.3002 15.062C60.4802 15.434 60.7262 15.722 61.0382 15.926C61.3622 16.13 61.7402 16.232 62.1722 16.232ZM69.7355 18.5V5.18H72.6155V18.5H69.7355ZM75.9235 18.5V6.53H78.8035V18.5H75.9235ZM74.2315 11.462V8.942H80.6575V11.462H74.2315ZM82.3034 18.5V5.18H85.1294V10.886L84.5534 11.102C84.6854 10.67 84.9194 10.28 85.2554 9.932C85.6034 9.572 86.0174 9.284 86.4974 9.068C86.9774 8.852 87.4814 8.744 88.0094 8.744C88.7294 8.744 89.3354 8.894 89.8274 9.194C90.3194 9.482 90.6914 9.92 90.9434 10.508C91.1954 11.084 91.3214 11.792 91.3214 12.632V18.5H88.4234V12.866C88.4234 12.482 88.3694 12.164 88.2614 11.912C88.1534 11.66 87.9854 11.474 87.7574 11.354C87.5414 11.222 87.2714 11.162 86.9474 11.174C86.6954 11.174 86.4614 11.216 86.2454 11.3C86.0294 11.372 85.8434 11.486 85.6874 11.642C85.5314 11.786 85.4054 11.954 85.3094 12.146C85.2254 12.338 85.1834 12.548 85.1834 12.776V18.5H83.7614C83.4254 18.5 83.1374 18.5 82.8974 18.5C82.6574 18.5 82.4594 18.5 82.3034 18.5ZM105.525 18.68C104.577 18.68 103.701 18.524 102.897 18.212C102.105 17.888 101.415 17.438 100.827 16.862C100.239 16.274 99.7828 15.584 99.4588 14.792C99.1468 13.988 98.9908 13.106 98.9908 12.146C98.9908 11.21 99.1588 10.346 99.4948 9.554C99.8308 8.762 100.293 8.078 100.881 7.502C101.481 6.914 102.183 6.458 102.987 6.134C103.803 5.81 104.691 5.648 105.651 5.648C106.251 5.648 106.839 5.726 107.415 5.882C107.991 6.038 108.525 6.272 109.017 6.584C109.521 6.884 109.953 7.244 110.313 7.664L108.441 9.806C108.189 9.542 107.919 9.314 107.631 9.122C107.355 8.918 107.049 8.762 106.713 8.654C106.377 8.546 106.017 8.492 105.633 8.492C105.153 8.492 104.697 8.582 104.265 8.762C103.845 8.93 103.473 9.176 103.149 9.5C102.837 9.812 102.591 10.196 102.411 10.652C102.231 11.108 102.141 11.618 102.141 12.182C102.141 12.734 102.231 13.238 102.411 13.694C102.591 14.138 102.843 14.522 103.167 14.846C103.491 15.17 103.881 15.416 104.337 15.584C104.805 15.752 105.321 15.836 105.885 15.836C106.269 15.836 106.635 15.782 106.983 15.674C107.331 15.566 107.649 15.422 107.937 15.242C108.237 15.05 108.501 14.834 108.729 14.594L110.205 16.934C109.905 17.27 109.503 17.57 108.999 17.834C108.507 18.098 107.955 18.308 107.343 18.464C106.743 18.608 106.137 18.68 105.525 18.68ZM116.493 18.68C115.497 18.68 114.609 18.464 113.829 18.032C113.061 17.6 112.449 17.012 111.993 16.268C111.549 15.524 111.327 14.672 111.327 13.712C111.327 12.752 111.549 11.9 111.993 11.156C112.449 10.412 113.061 9.824 113.829 9.392C114.609 8.96 115.497 8.744 116.493 8.744C117.489 8.744 118.371 8.96 119.139 9.392C119.919 9.824 120.531 10.412 120.975 11.156C121.419 11.9 121.641 12.752 121.641 13.712C121.641 14.672 121.419 15.524 120.975 16.268C120.531 17.012 119.919 17.6 119.139 18.032C118.371 18.464 117.489 18.68 116.493 18.68ZM116.493 16.196C116.925 16.196 117.309 16.088 117.645 15.872C117.981 15.656 118.245 15.362 118.437 14.99C118.629 14.618 118.719 14.192 118.707 13.712C118.719 13.232 118.629 12.806 118.437 12.434C118.245 12.05 117.981 11.75 117.645 11.534C117.309 11.318 116.925 11.21 116.493 11.21C116.061 11.21 115.671 11.318 115.323 11.534C114.987 11.75 114.723 12.05 114.531 12.434C114.339 12.806 114.249 13.232 114.261 13.712C114.249 14.192 114.339 14.618 114.531 14.99C114.723 15.362 114.987 15.656 115.323 15.872C115.671 16.088 116.061 16.196 116.493 16.196ZM123.524 18.5V8.942H126.26L126.35 10.886L125.774 11.102C125.906 10.67 126.14 10.28 126.476 9.932C126.824 9.572 127.238 9.284 127.718 9.068C128.198 8.852 128.702 8.744 129.23 8.744C129.95 8.744 130.556 8.894 131.048 9.194C131.54 9.482 131.912 9.92 132.164 10.508C132.416 11.084 132.542 11.792 132.542 12.632V18.5H129.644V12.866C129.644 12.482 129.59 12.164 129.482 11.912C129.374 11.66 129.206 11.474 128.978 11.354C128.762 11.222 128.492 11.162 128.168 11.174C127.916 11.174 127.682 11.216 127.466 11.3C127.25 11.372 127.064 11.486 126.908 11.642C126.752 11.786 126.626 11.954 126.53 12.146C126.446 12.338 126.404 12.548 126.404 12.776V18.5H124.982C124.646 18.5 124.358 18.5 124.118 18.5C123.878 18.5 123.68 18.5 123.524 18.5ZM134.95 18.5V8.942H137.686L137.776 10.886L137.2 11.102C137.332 10.67 137.566 10.28 137.902 9.932C138.25 9.572 138.664 9.284 139.144 9.068C139.624 8.852 140.128 8.744 140.656 8.744C141.376 8.744 141.982 8.894 142.474 9.194C142.966 9.482 143.338 9.92 143.59 10.508C143.842 11.084 143.968 11.792 143.968 12.632V18.5H141.07V12.866C141.07 12.482 141.016 12.164 140.908 11.912C140.8 11.66 140.632 11.474 140.404 11.354C140.188 11.222 139.918 11.162 139.594 11.174C139.342 11.174 139.108 11.216 138.892 11.3C138.676 11.372 138.49 11.486 138.334 11.642C138.178 11.786 138.052 11.954 137.956 12.146C137.872 12.338 137.83 12.548 137.83 12.776V18.5H136.408C136.072 18.5 135.784 18.5 135.544 18.5C135.304 18.5 135.106 18.5 134.95 18.5ZM150.93 18.68C149.874 18.68 148.956 18.47 148.176 18.05C147.396 17.618 146.79 17.036 146.358 16.304C145.926 15.56 145.71 14.714 145.71 13.766C145.71 13.034 145.83 12.362 146.07 11.75C146.31 11.138 146.646 10.61 147.078 10.166C147.51 9.71 148.02 9.362 148.608 9.122C149.208 8.87 149.862 8.744 150.57 8.744C151.242 8.744 151.854 8.864 152.406 9.104C152.97 9.344 153.456 9.68 153.864 10.112C154.272 10.544 154.584 11.054 154.8 11.642C155.016 12.23 155.112 12.872 155.088 13.568L155.07 14.342H147.456L147.042 12.722H152.73L152.424 13.064V12.704C152.4 12.404 152.304 12.14 152.136 11.912C151.98 11.672 151.77 11.486 151.506 11.354C151.242 11.222 150.942 11.156 150.606 11.156C150.138 11.156 149.736 11.252 149.4 11.444C149.076 11.624 148.83 11.894 148.662 12.254C148.494 12.602 148.41 13.034 148.41 13.55C148.41 14.078 148.518 14.54 148.734 14.936C148.962 15.32 149.286 15.62 149.706 15.836C150.138 16.052 150.648 16.16 151.236 16.16C151.644 16.16 152.004 16.1 152.316 15.98C152.64 15.86 152.988 15.656 153.36 15.368L154.71 17.276C154.338 17.6 153.942 17.864 153.522 18.068C153.102 18.272 152.67 18.422 152.226 18.518C151.794 18.626 151.362 18.68 150.93 18.68ZM161.117 18.68C160.193 18.68 159.365 18.464 158.633 18.032C157.901 17.6 157.319 17.012 156.887 16.268C156.467 15.512 156.257 14.66 156.257 13.712C156.257 12.764 156.467 11.918 156.887 11.174C157.319 10.418 157.901 9.824 158.633 9.392C159.365 8.96 160.193 8.744 161.117 8.744C161.969 8.744 162.749 8.894 163.457 9.194C164.177 9.494 164.747 9.914 165.167 10.454L163.601 12.326C163.433 12.134 163.235 11.954 163.007 11.786C162.779 11.618 162.527 11.486 162.251 11.39C161.975 11.294 161.687 11.246 161.387 11.246C160.931 11.246 160.529 11.354 160.181 11.57C159.833 11.774 159.563 12.062 159.371 12.434C159.179 12.806 159.083 13.232 159.083 13.712C159.083 14.168 159.179 14.582 159.371 14.954C159.575 15.326 159.851 15.62 160.199 15.836C160.547 16.052 160.943 16.16 161.387 16.16C161.699 16.16 161.987 16.124 162.251 16.052C162.515 15.968 162.755 15.848 162.971 15.692C163.199 15.536 163.409 15.344 163.601 15.116L165.149 17.006C164.741 17.522 164.171 17.93 163.439 18.23C162.719 18.53 161.945 18.68 161.117 18.68ZM167.523 18.5V6.53H170.403V18.5H167.523ZM165.831 11.462V8.942H172.257V11.462H165.831Z"/><defs><clipPath id="clip0_1_7"><rect width="16" height="16" fill="#fff" transform="translate(0 4)"/></clipPath></defs></svg>